<svg xmlns:xlink="http://www.w3.org/1999/xlink" version="1.1" xmlns="http://www.w3.org/2000/svg" width="24" height="24" viewBox="0 0 1024 1024" class="icon logo link-icon__icon"><path class="icon__path" d="M499.2 21.333c0 29.867-68.267 115.2-128 162.133-64 55.467-183.467 110.933-260.267 123.733-34.133 8.533-59.733 17.067-59.733 25.6s25.6 12.8 59.733 21.333c68.267 12.8 187.733 59.733 187.733 72.533s-89.6 68.267-106.667 68.267c-29.867 0-21.333 21.333 12.8 34.133 128 51.2 277.333 277.333 294.4 443.733 4.267 29.867 12.8 46.933 17.067 46.933s17.067-29.867 21.333-64c21.333-93.867 51.2-170.667 106.667-251.733 59.733-89.6 115.2-140.8 179.2-170.667 38.4-17.067 51.2-38.4 21.333-38.4-17.067 0-110.933-59.733-110.933-72.533s115.2-59.733 174.933-72.533c34.133-8.533 59.733-17.067 64-21.333 0-4.267-21.333-12.8-59.733-21.333-72.533-12.8-192-68.267-256-123.733-59.733-51.2-128-136.533-128-162.133 0-12.8-8.533-21.333-12.8-21.333s-17.067 8.533-17.067 21.333zM533.333 145.067c21.333 76.8 68.267 157.867 115.2 221.867l42.667 55.467-68.267 59.733c-34.133 34.133-72.533 76.8-89.6 98.133l-21.333 34.133-12.8-21.333c-8.533-12.8-46.933-55.467-89.6-98.133l-72.533-72.533 38.4-51.2c46.933-64 81.067-123.733 110.933-209.067 12.8-38.4 25.6-68.267 29.867-68.267s8.533 21.333 17.067 51.2zM465.067 170.667c-25.6 72.533-72.533 153.6-119.467 204.8l-25.6 34.133-72.533-29.867c-38.4-17.067-85.333-34.133-102.4-38.4-25.6-8.533-25.6-8.533 29.867-29.867 89.6-29.867 174.933-85.333 238.933-149.333 34.133-34.133 68.267-64 68.267-64 4.267 4.267-4.267 34.133-17.067 72.533zM614.4 166.4c68.267 68.267 153.6 119.467 243.2 149.333 51.2 17.067 51.2 17.067 21.333 25.6-17.067 4.267-64 21.333-102.4 38.4l-68.267 29.867-25.6-34.133c-46.933-55.467-89.6-132.267-119.467-204.8-12.8-38.4-21.333-68.267-21.333-68.267 4.267-0 34.133 29.867 72.533 64zM422.4 524.8c72.533 72.533 85.333 102.4 85.333 251.733 4.267 132.267 0 140.8-34.133 59.733-38.4-102.4-132.267-234.667-204.8-281.6-21.333-12.8-42.667-34.133-42.667-38.4s21.333-21.333 46.933-42.667c51.2-34.133 51.2-34.133 72.533-12.8 17.067 8.533 51.2 38.4 76.8 64zM806.4 516.267c0 4.267-21.333 21.333-46.933 34.133-72.533 46.933-166.4 174.933-204.8 281.6-29.867 85.333-38.4 72.533-34.133-68.267l4.267-132.267 38.4-55.467c21.333-29.867 64-72.533 89.6-98.133l51.2-38.4 51.2 34.133c29.867 21.333 51.2 42.667 51.2 42.667z" fill="#212121"></path></svg>