<svg xmlns:xlink="http://www.w3.org/1999/xlink" version="1.1" xmlns="http://www.w3.org/2000/svg" width="24" height="24" viewBox="0 0 1024 1024" class="icon arrow-right link-image__title-icon" data-v-1d232336=""><path class="icon__path" d="M481.835 243.499l225.835 225.835h-494.336c-23.552 0-42.667 19.115-42.667 42.667s19.115 42.667 42.667 42.667h494.336l-225.835 225.835c-16.683 16.683-16.683 43.691 0 60.331s43.691 16.683 60.331 0l298.667-298.667c3.925-3.925 7.083-8.619 9.259-13.824 4.309-10.453 4.309-22.229 0-32.683-2.091-5.035-5.163-9.728-9.259-13.824l-298.667-298.667c-16.683-16.683-43.691-16.683-60.331 0s-16.683 43.691 0 60.331z" data-v-1d232336="" fill="#4D4D4D"></path></svg>